<svg width="61" height="67" viewBox="0 0 61 67" fill="none" xmlns="http://www.w3.org/2000/svg">
<path fill-rule="evenodd" clip-rule="evenodd" d="M19.3829 65.3354L19.3829 18.6097L42.6004 18.6097C43.373 18.6097 44 18.0103 44 17.2712V1.33899C44 0.599845 43.373 0 42.6004 0L1.39964 0C0.627014 0 0 0.599845 0 1.33899L0 65.3354C0 66.0746 0.627014 66.6744 1.39964 66.6744L17.9832 66.6744C18.7558 66.6744 19.3829 66.0746 19.3829 65.3354ZM41.2007 2.67749V15.932L18.5571 15.932L4.77234 2.67749L41.2007 2.67749ZM2.79932 4.57874L2.79932 63.9968L16.5841 64.1842V59.7657H13.1132C12.3406 59.7657 11.7136 59.1663 11.7136 58.4272C11.7136 57.688 12.3406 57.0882 13.1132 57.0882H16.5841V54.4107H13.1132C12.3406 54.4107 11.7136 53.8108 11.7136 53.0717C11.7136 52.3325 12.3406 51.7327 13.1132 51.7327H16.5841V49.0552H10.1466C9.37394 49.0552 8.74693 48.4553 8.74693 47.7162C8.74693 46.9775 9.37394 46.3777 10.1466 46.3777H16.5841L16.5841 43.6997H13.1132C12.3406 43.6997 11.7136 43.0998 11.7136 42.3612C11.7136 41.622 12.3406 41.0222 13.1132 41.0222H16.5841V38.3447H13.1132C12.3406 38.3447 11.7136 37.7448 11.7136 37.0057C11.7136 36.2665 12.3406 35.6667 13.1132 35.6667H16.5841V32.9892H10.1466C9.37394 32.9892 8.74693 32.3893 8.74693 31.6502C8.74693 30.911 9.37394 30.3117 10.1466 30.3117L16.5841 30.3117V27.6337L13.1132 27.6337C12.3406 27.6337 11.7136 27.0338 11.7136 26.2947C11.7136 25.556 12.3406 24.9562 13.1132 24.9562L16.5841 24.9562V22.2782L13.1132 22.2782C12.3406 22.2782 11.7136 21.6788 11.7136 20.9397C11.7136 20.2005 12.3406 19.6007 13.1132 19.6007L16.5841 19.6007V17.7667L2.79932 4.57874Z" fill="white"/>
<path fill-rule="evenodd" clip-rule="evenodd" d="M21 33.7288L21 33.7323L21 33.7426V33.7288ZM21 33.7323C21.0037 34.0191 21.102 34.298 21.2806 34.5274L31.2037 47.5741C31.2037 47.5741 31.316 47.6553 31.3721 47.7094C31.3939 47.7305 31.4094 47.7516 31.4242 47.7719C31.4475 47.8037 31.4694 47.8336 31.5124 47.8585L50.9509 61.6497C52.395 62.8881 54.4512 63.2101 56.2278 62.4753C57.1639 62.0272 57.9653 61.3575 58.558 60.5264L59.7367 58.943C60.5044 58.0064 60.9467 56.8601 61 55.6676C60.9424 54.0085 60.033 52.4857 58.5718 51.6073L39.0772 37.8702C38.9973 37.8257 38.9116 37.7904 38.8246 37.762C38.8246 37.762 38.7404 37.762 38.6981 37.6808L22.8527 32.4564C22.1187 32.217 21.3215 32.5972 21.0747 33.305C21.0263 33.4426 21.0012 33.5867 21 33.7323ZM56.9155 53.8272C57.6299 54.2153 58.1099 54.9084 58.2069 55.6945C58.1479 56.3133 57.8939 56.899 57.4773 57.3729L56.2981 58.9159C55.9866 59.3732 55.5628 59.7511 55.0629 60.0121L55.0533 60.0163C54.7911 60.1289 54.0208 60.4598 52.6209 59.4709L51.358 58.5774L53.5051 55.7624L55.6384 52.9337L56.9155 53.8272ZM52.0597 53.0559L53.3792 51.3234L38.5858 40.8613L34.2911 46.4917L49.0845 56.9537L50.4035 55.2346L38.9792 47.1141C38.9297 47.0829 38.8836 47.0503 38.8389 47.0136C38.2438 46.5361 38.1634 45.6821 38.6591 45.1083C39.1542 44.5345 40.0399 44.456 40.6349 44.9349L52.0597 53.0559ZM36.0178 39.6431L32.3263 44.4885L30.0388 41.4837L32.3543 38.4386L36.0178 39.6431ZM28.2984 39.1963L29.5756 37.5184L26.179 36.4084L28.2984 39.1963Z" fill="white"/>
</svg>
