<svg width="65" height="64" viewBox="0 0 65 64" fill="none" xmlns="http://www.w3.org/2000/svg">
<path fill-rule="evenodd" clip-rule="evenodd" d="M64.068 30.2768L61.1659 29.1846V27.4481C61.2066 16.7899 53.522 7.28055 42.0252 3.76336V1.31599C42.0252 0.589543 41.3515 0 40.5219 0H24.4332C23.6036 0 22.9299 0.589543 22.9299 1.31599V3.77629C11.4331 7.29348 3.74853 16.8029 3.7893 27.461V29.2109L0.917259 30.2768C0.360788 30.4823 0 30.9599 0 31.4875V38.3957C0 39.1217 0.673675 39.7112 1.50379 39.7112H3.45857V42.3432C3.45857 43.0692 4.13174 43.6588 4.96186 43.6588H10.3599C10.8726 45.3061 11.6257 46.8905 12.6001 48.3693L8.78122 51.7117C8.19774 52.2245 8.19774 53.0536 8.78122 53.5668L15.1715 59.159C15.7575 59.6696 16.7048 59.6696 17.2913 59.159L21.1102 55.8171C22.7959 56.6697 24.6004 57.3275 26.4782 57.7775V62.5014C26.4782 63.2274 27.1519 63.817 27.982 63.817H37.0032C37.8334 63.817 38.507 63.2274 38.507 62.5014V57.7775C40.3894 57.3289 42.1995 56.6711 43.8898 55.8171L47.7092 59.159C48.2952 59.6696 49.2425 59.6696 49.8291 59.159L56.2193 53.5668C56.8028 53.0536 56.8028 52.2245 56.2193 51.7117L52.3999 48.3693C53.3743 46.8905 54.1279 45.3061 54.6406 43.6588H60.0381C60.8683 43.6588 61.5419 43.0692 61.5419 42.3432V39.7112H63.4967C64.3268 39.7112 65 39.1217 65 38.3957V31.4875C64.9969 30.9559 64.629 30.4783 64.068 30.2768ZM25.9068 2.64502H39.0181V24.632H25.9368L25.9068 2.64502ZM53.5429 41.0274H58.5496L58.5348 39.7114H44.777C44.0911 44.6641 39.6301 48.5671 33.9706 49.1682C27.1773 49.8906 21.0021 45.6564 20.1781 39.7114H6.43559V41.0274H11.4423C12.1639 41.0127 12.7937 41.4497 12.9461 42.0665C13.4704 44.1205 14.4178 46.0733 15.7427 47.8299C16.129 48.3499 16.0464 49.0353 15.547 49.4746L11.9534 52.6194L16.2085 56.3435L19.8021 53.1987C20.3045 52.7617 21.0878 52.6894 21.6819 53.0274C23.7009 54.1775 25.9431 54.9932 28.2974 55.4356C29.0027 55.5684 29.5021 56.1196 29.4853 56.7511V61.2249H35.4994V56.7908C35.4831 56.1593 35.982 55.6077 36.6873 55.4748C39.0421 55.0315 41.2837 54.2154 43.3032 53.0671C43.8974 52.7286 44.6806 52.8013 45.1826 53.2379L48.7762 56.3828L53.0766 52.6457L49.483 49.5009C48.9841 49.0616 48.9011 48.3762 49.2878 47.8562C50.6005 46.0889 51.5326 44.1272 52.0391 42.0665C52.1909 41.4497 52.8213 41.0127 53.5429 41.0274ZM23.2454 39.7114H41.7546C40.9275 44.1879 36.1099 47.2302 30.9952 46.5064C27.0046 45.9418 23.8757 43.2037 23.2306 39.7114H23.2454ZM2.99224 37.0795H62.0076V32.3819L59.106 31.2898C58.5496 31.0846 58.1888 30.607 58.1888 30.0795V27.4475C58.2311 18.2462 51.8301 9.95911 42.0552 6.56543V25.9477C42.0552 26.6737 41.3815 27.2633 40.5514 27.2633H24.4332C23.603 27.2633 22.9299 26.6737 22.9299 25.9477V6.56543C13.1713 9.96044 6.77797 18.2315 6.8111 27.4212V30.0527C6.8111 30.5807 6.45031 31.0583 5.89384 31.2635L2.99224 32.3556V37.0795Z" fill="white"/>
</svg>
