<svg width="46" height="48" viewBox="0 0 46 48" fill="none" xmlns="http://www.w3.org/2000/svg">
<path d="M2.26039 0.104878C1.58747 0.301753 1.25604 0.508003 0.773946 1.00488C-0.0496244 1.858 0.000593309 1.08925 0.000593309 12.3955C0.000593309 23.7018 -0.0496244 22.933 0.773946 23.7861C1.3163 24.3486 2.02939 24.7143 2.72239 24.7893L3.21453 24.8455V26.758C3.21453 28.333 3.24466 28.7361 3.37522 28.9986C3.67653 29.5986 4.37958 29.8799 5.1931 29.7393C5.52454 29.683 5.93633 29.3455 8.18608 27.2455L10.8074 24.8174H13.9912H17.1851L17.4261 24.583C17.7475 24.2924 17.7475 23.9361 17.4261 23.6455L17.1851 23.4111H13.7602C10.9782 23.4111 10.2852 23.4393 10.0642 23.5424C9.91357 23.6174 8.66817 24.7424 7.28216 26.0268L4.77127 28.3799L4.72106 26.083C4.68088 24.0861 4.65075 23.7674 4.5001 23.6361C4.37958 23.5143 4.07827 23.458 3.4154 23.4111C2.42109 23.3455 2.13987 23.2236 1.72808 22.6611L1.50712 22.3518V12.4236C1.50712 1.41738 1.45691 2.20488 2.18004 1.68925L2.54161 1.42675L12.9969 1.39863C18.7519 1.38925 23.6029 1.39863 23.7837 1.42675C24.2357 1.50175 24.8784 2.06425 25.009 2.48613C25.0693 2.71113 25.1094 5.2705 25.1094 9.46113C25.1094 15.9768 25.1094 16.0986 25.3103 16.2861C25.6116 16.5674 26.1439 16.5393 26.4151 16.2205C26.626 15.9768 26.626 15.958 26.5959 9.12363L26.5658 2.2705L26.3046 1.7455C25.9832 1.108 25.4811 0.620503 24.778 0.273628L24.2557 0.0205028L13.4589 0.00175281C4.93197 -0.00762219 2.58178 0.0111278 2.26039 0.104878Z" fill="#121212"/>
<path d="M12.5751 5.5707C12.3742 5.76758 11.6109 7.53008 9.65243 12.3395C7.14155 18.4988 7.01098 18.8645 7.14155 19.0895C7.22189 19.2207 7.40268 19.3895 7.54329 19.4645C7.76425 19.577 7.83455 19.577 8.09568 19.4645C8.3769 19.3332 8.64808 18.7988 9.51182 16.6707L9.6223 16.3801L13.2681 16.3988L16.9139 16.427L17.175 17.0551C17.4763 17.8145 17.6672 18.002 18.079 17.9926C18.5008 17.9832 18.782 17.7395 18.782 17.3738C18.782 16.9332 14.2624 5.81445 13.9712 5.54258C13.6196 5.21445 12.9367 5.22383 12.5751 5.5707ZM16.2711 14.8988C16.2711 14.9457 14.9052 14.9738 13.248 14.9738C10.4157 14.9738 10.2249 14.9645 10.2751 14.8051C10.3053 14.6832 11.8218 10.952 13.1777 7.66133C13.2581 7.45508 13.479 7.9332 14.7746 11.1301C15.5982 13.1645 16.2711 14.8613 16.2711 14.8988Z" fill="#121212"/>
<path d="M20.0173 19.3895C20.3689 18.9207 21.1221 18.4051 21.6343 18.2645C21.8051 18.2176 26.5858 18.1707 32.7124 18.1707C43.3987 18.1614 43.4891 18.1614 44.0415 18.3582C44.7847 18.6207 45.5078 19.2957 45.7891 19.9895C46 20.5051 46 20.5989 46 30.6114V40.7082L45.7188 41.2707C45.2467 42.1989 44.3528 42.8082 43.2681 42.9582L42.786 43.0239V44.9457C42.786 47.0364 42.7559 47.1864 42.1935 47.627C41.8219 47.9082 41.39 48.0114 40.8979 47.927C40.5865 47.8707 40.1345 47.5051 37.9149 45.4426L35.3036 43.0145L28.5744 42.9864L21.8453 42.9582L21.3431 42.7426C20.6903 42.4614 19.9571 41.7864 19.6658 41.1864L19.4348 40.7082L19.4047 30.827C19.3746 19.8864 19.3545 20.252 20.0173 19.3895Z" fill="#F68C1F"/>
<path d="M32.17 22.83C31.0954 23.1863 30.3923 23.8707 30.081 24.855C29.8098 25.6894 29.9604 26.5238 30.5028 27.2832C30.8242 27.7238 30.8342 27.78 30.6836 27.8644C28.6046 28.9988 27.4194 30.9769 27.55 33.1144C27.6103 34.2113 27.9216 35.0738 28.5744 35.9738C29.4281 37.1457 30.8945 38.0644 32.3207 38.3269C33.1945 38.4769 34.7412 38.3925 35.5246 38.13C36.3682 37.8582 37.3424 37.2582 37.473 36.9394C37.6036 36.6207 37.4328 36.2832 37.0512 36.0769C36.8101 35.955 36.7499 35.9644 36.3983 36.1425C34.932 36.9113 34.7813 36.9582 33.546 36.9582C32.4211 36.9582 32.3709 36.9488 31.6377 36.6207C29.2473 35.5519 28.3434 32.9457 29.6089 30.7894C30.091 29.955 31.005 29.2144 31.9792 28.8769C32.2604 28.7738 32.9233 28.7082 34.1185 28.6707C35.7254 28.6144 35.866 28.5957 36.0669 28.4082C36.3381 28.155 36.3582 27.705 36.1071 27.4425C35.9464 27.2738 35.7957 27.255 34.6106 27.255C32.5215 27.2457 32.0897 27.105 31.6478 26.2894C31.3264 25.6894 31.4168 25.1363 31.8988 24.63C32.5517 23.955 33.4455 23.9082 34.239 24.4894C34.7412 24.8644 35.153 24.9113 35.4543 24.63C35.7857 24.3207 35.7154 23.88 35.2835 23.4863C34.4901 22.7644 33.1844 22.4925 32.17 22.83Z" fill="#121212"/>
</svg>
