<svg width="29" height="20" viewBox="0 0 29 20" fill="none" xmlns="http://www.w3.org/2000/svg">
<path fill-rule="evenodd" clip-rule="evenodd" d="M26.3394 0C27.2084 0 27.98 0.372797 28.4656 0.949421L14.3642 11.5335L0.388389 1.14162C0.855675 0.45698 1.69848 0 2.66055 0H26.3394ZM0 17.619V3.01973L10.028 10.4762L0.0206719 17.9173C0.00703136 17.8196 0 17.7201 0 17.619ZM0.917122 19.4176C1.38405 19.7804 1.99364 20 2.66055 20H26.3394C26.9127 20 27.4435 19.8378 27.8779 19.5618L17.2219 11.5638L15.3057 13.0021C14.7638 13.4089 13.9743 13.4105 13.4302 13.006L11.4851 11.5596L0.917122 19.4176ZM18.671 10.4762L28.9273 18.1742C28.9748 17.9961 29 17.8102 29 17.619V2.72357L18.671 10.4762Z" fill="#F68B1E"/>
</svg>
