<svg width="46" height="48" viewBox="0 0 46 48" fill="none" xmlns="http://www.w3.org/2000/svg">
<path d="M21.7877 18.2645C21.2787 18.4051 20.5301 18.9207 20.1808 19.3895C19.5221 20.252 19.5421 19.8864 19.572 30.827L19.602 40.7082L19.8315 41.1864C20.1209 41.7864 20.8495 42.4614 21.4982 42.7426L21.9973 42.9582L28.6841 42.9864L35.3709 43.0145L37.9658 45.4426C40.1715 47.5051 40.6206 47.8707 40.93 47.927C41.419 48.0114 41.8482 47.9082 42.2174 47.627C42.7763 47.1864 42.8063 47.0364 42.8063 44.9457V43.0239L43.2853 42.9582C44.3632 42.8082 45.2515 42.1989 45.7205 41.2707L46 40.7082V30.6114C46 20.5989 46 20.5051 45.7904 19.9895C45.5109 19.2957 44.7924 18.6207 44.0538 18.3582C43.5049 18.1614 43.4151 18.1614 32.796 18.1707C26.708 18.1707 21.9573 18.2176 21.7877 18.2645ZM43.7145 19.7832C43.8941 19.8957 44.1536 20.1395 44.2734 20.3082L44.5029 20.627V30.5832V40.5395L44.2734 40.8582C43.934 41.3364 43.3053 41.5989 42.4769 41.5989C41.8881 41.5989 41.7683 41.627 41.5587 41.8332L41.3092 42.0582V44.3364V46.6145L38.6345 44.102L35.9597 41.5989H29.2829C25.0512 41.5989 22.4663 41.5614 22.2268 41.5051C21.7877 41.3832 21.2986 40.8864 21.1489 40.4082C21.0691 40.1551 21.0491 37.1739 21.0691 30.3395L21.099 20.6364L21.3585 20.2614C21.8775 19.5207 21.0292 19.5676 32.8359 19.5676H43.3751L43.7145 19.7832Z" fill="#121212"/>
<path d="M31.8747 22.83C30.8068 23.1863 30.1081 23.8707 29.7987 24.855C29.5293 25.6894 29.679 26.5238 30.2179 27.2832C30.5373 27.7238 30.5473 27.78 30.3976 27.8644C28.3316 28.9988 27.154 30.9769 27.2837 33.1144C27.3436 34.2113 27.653 35.0738 28.3017 35.9738C29.15 37.1457 30.6071 38.0644 32.0244 38.3269C32.8926 38.4769 34.4296 38.3925 35.2081 38.13C36.0464 37.8582 37.0145 37.2582 37.1443 36.9394C37.274 36.6207 37.1044 36.2832 36.7251 36.0769C36.4856 35.955 36.4257 35.9644 36.0764 36.1425C34.6192 36.9113 34.4695 36.9582 33.242 36.9582C32.1242 36.9582 32.0743 36.9488 31.3457 36.6207C28.9704 35.5519 28.0721 32.9457 29.3297 30.7894C29.8087 29.955 30.7169 29.2144 31.685 28.8769C31.9645 28.7738 32.6232 28.7082 33.8108 28.6707C35.4077 28.6144 35.5474 28.5957 35.747 28.4082C36.0165 28.155 36.0365 27.705 35.7869 27.4425C35.6273 27.2738 35.4776 27.255 34.2999 27.255C32.224 27.2457 31.7948 27.105 31.3557 26.2894C31.0363 25.6894 31.1261 25.1363 31.6052 24.63C32.2539 23.955 33.1422 23.9082 33.9306 24.4894C34.4296 24.8644 34.8388 24.9113 35.1382 24.63C35.4676 24.3207 35.3977 23.88 34.9686 23.4863C34.1801 22.7644 32.8827 22.4925 31.8747 22.83Z" fill="#121212"/>
<path d="M25.8192 1.222C25.4699 0.75325 24.7213 0.237625 24.2123 0.0970001C24.0427 0.0501251 19.292 0.00325012 13.204 0.00325012C2.58493 -0.0061245 2.49511 -0.0061245 1.94619 0.19075C1.20765 0.453251 0.489061 1.12825 0.209612 1.822C2.47955e-05 2.33763 2.47955e-05 2.43138 2.47955e-05 12.4439L2.47955e-05 22.5408L0.279474 23.1033C0.74855 24.0314 1.6368 24.6408 2.71468 24.7908L3.19374 24.8564V26.7783C3.19374 28.8689 3.22367 29.0189 3.78257 29.4595C4.15185 29.7408 4.581 29.8439 5.07004 29.7595C5.37943 29.7033 5.82854 29.3376 8.0342 27.2751L10.6291 24.847L17.3159 24.8189L24.0027 24.7908L24.5018 24.5751C25.1505 24.2939 25.8791 23.6189 26.1685 23.0189L26.398 22.5408L26.428 12.6595C26.4579 1.71888 26.4779 2.0845 25.8192 1.222Z" fill="#F68C1F"/>
<path d="M12.4029 5.5707C12.2033 5.76758 11.4448 7.53008 9.49866 12.3395C7.00358 18.4988 6.87383 18.8645 7.00358 19.0895C7.08342 19.2207 7.26307 19.3895 7.40279 19.4645C7.62236 19.577 7.69222 19.577 7.95171 19.4645C8.23116 19.3332 8.50063 18.7988 9.35894 16.6707L9.46872 16.3801L13.0916 16.3988L16.7145 16.427L17.6797 18.5625C17.9791 19.3219 18.1687 19.5094 18.5779 19.5C18.9971 19.4906 19.2766 19.2469 19.2766 18.8812C19.2766 18.4406 14.0796 5.81445 13.7902 5.54258C13.4409 5.21445 12.7622 5.22383 12.4029 5.5707ZM16.0757 14.8988C16.0757 14.9457 14.7184 14.9738 13.0716 14.9738C10.2572 14.9738 10.0675 14.9645 10.1174 14.8051C10.1474 14.6832 11.6544 10.952 13.0018 7.66133C13.0816 7.45508 13.3012 7.9332 14.5886 11.1301C15.407 13.1645 16.0757 14.8613 16.0757 14.8988Z" fill="#121212"/>
</svg>
