<svg width="72" height="59" viewBox="0 0 72 59" fill="none" xmlns="http://www.w3.org/2000/svg">
<path d="M28.9878 0.561676C29.9732 0.676417 30.927 0.952516 31.878 1.23649C32.5951 1.43314 33.3221 1.57243 34.0493 1.72119C36.3367 2.20793 36.3367 2.20793 36.5982 2.48294C36.9784 2.56625 37.3574 2.64213 37.7397 2.71309C37.9619 2.75566 38.1841 2.79839 38.4062 2.8413C38.5139 2.86206 38.6217 2.88283 38.7327 2.90423C40.3433 3.22028 40.3433 3.22028 40.5555 3.44357C40.9378 3.51635 41.3211 3.57729 41.7054 3.63682C42.1768 3.79763 42.2821 3.96047 42.5342 4.4042C42.5902 4.81228 42.5902 4.81228 42.5885 5.27762C42.5889 5.45232 42.5894 5.62702 42.5899 5.80701C42.587 6.08872 42.587 6.08872 42.5842 6.37611C42.5839 6.56952 42.5836 6.76293 42.5833 6.9622C42.5823 7.37092 42.5802 7.77965 42.577 8.18836C42.5723 8.8152 42.5708 9.44198 42.5699 10.0688C42.5685 10.4657 42.5669 10.8625 42.5651 11.2593C42.5645 11.4474 42.5638 11.6356 42.5632 11.8294C42.5617 12.0036 42.5603 12.1778 42.5587 12.3573C42.5577 12.5107 42.5567 12.6641 42.5556 12.8222C42.5342 13.21 42.5342 13.21 42.382 13.6903C42.4385 13.611 42.495 13.5318 42.5532 13.4501C42.8386 13.21 42.8386 13.21 43.2572 13.1499C43.7319 13.2075 44.0683 13.341 44.4969 13.5539C44.8919 13.722 45.2872 13.8187 45.702 13.9204C46.4318 14.1028 47.0951 14.3491 47.7848 14.6553C48.3279 14.8772 48.8844 15.0236 49.4477 15.1775C49.8873 15.305 50.3025 15.4691 50.7266 15.6434C51.1215 15.7963 51.5207 15.924 51.9235 16.0518C52.8645 16.3542 53.8031 16.664 54.7393 16.9824C54.8814 17.0293 55.0235 17.0762 55.1699 17.1246C55.3031 17.1703 55.4363 17.2161 55.5735 17.2633C55.6932 17.3036 55.8129 17.344 55.9363 17.3856C56.2329 17.5328 56.2329 17.5328 56.5373 18.0131C56.5653 18.4581 56.5757 18.8867 56.5718 19.3316C56.5719 19.466 56.5719 19.6003 56.572 19.7388C56.5717 20.1832 56.5694 20.6276 56.567 21.072C56.5664 21.38 56.566 21.688 56.5657 21.9961C56.5645 22.807 56.5615 23.618 56.5582 24.4289C56.5551 25.2563 56.5537 26.0837 56.5521 26.9111C56.5489 28.5348 56.5437 30.1585 56.5373 31.7822C56.7681 31.8124 56.7681 31.8124 57.0037 31.8432C57.5768 31.938 58.1071 32.0761 58.6636 32.2468C58.7637 32.2772 58.8639 32.3077 58.9671 32.3391C59.2951 32.4392 59.6229 32.5403 59.9506 32.6415C60.1809 32.7119 60.4112 32.7824 60.6415 32.8527C61.2464 33.0377 61.851 33.2236 62.4556 33.4096C63.0669 33.5976 63.6785 33.7846 64.29 33.9717C64.9796 34.1829 65.6692 34.3942 66.3586 34.6058C66.4636 34.6381 66.5686 34.6703 66.6767 34.7035C66.8788 34.7657 67.0808 34.8282 67.2828 34.891C67.7165 35.0259 68.1504 35.1571 68.5873 35.2802C68.7258 35.32 68.8643 35.3598 69.0071 35.4009C69.1248 35.4332 69.2426 35.4655 69.3639 35.4988C69.4508 35.5403 69.5376 35.5819 69.6271 35.6247C69.7757 36.0937 69.7981 36.3918 69.7976 36.88C69.7979 37.1194 69.7979 37.1194 69.7982 37.3637C69.7977 37.5386 69.7971 37.7135 69.7966 37.8938C69.7966 38.0781 69.7966 38.2625 69.7966 38.4524C69.7965 39.0631 69.7953 39.6739 69.7941 40.2846C69.7939 40.7075 69.7936 41.1304 69.7935 41.5533C69.793 42.5535 69.7918 43.5537 69.7902 44.5539C69.7884 45.8043 69.7875 47.0548 69.7867 48.3052C69.7852 50.5359 69.7822 52.7666 69.7793 54.9974C74.35 54.9974 65.0889 54.9974 69.7982 54.9974C69.7982 55.9484 69.7982 56.8994 69.7982 57.8793C51.8667 57.8793 47.7671 57.8793 29.2922 57.8793C29.2922 57.9849 29.2922 58.0906 29.2922 58.1995C29.1415 58.1466 28.9908 58.0938 28.8356 58.0394C28.8321 50.7402 28.8294 43.441 28.8278 36.1418C28.8276 35.281 28.8274 34.4202 28.8272 33.5595C28.8272 33.3881 28.8272 33.2167 28.8271 33.0401C28.8264 30.2614 28.8252 27.4827 28.8239 24.704C28.8224 21.8551 28.8216 19.0061 28.8213 16.1572C28.8211 14.3977 28.8204 12.6383 28.8192 10.8788C28.8184 9.67401 28.8181 8.46922 28.8183 7.26443C28.8184 6.56823 28.8183 5.87203 28.8175 5.17584C28.8167 4.53956 28.8167 3.90328 28.8172 3.267C28.8173 3.03578 28.8171 2.80456 28.8166 2.57335C28.816 2.26111 28.8164 1.94887 28.8169 1.63663C28.8168 1.46258 28.8168 1.28852 28.8167 1.10919C28.8356 0.721781 28.8356 0.721781 28.9878 0.561676ZM42.6864 13.6903C42.8386 14.1706 42.8386 14.1706 42.8386 14.1706L42.6864 13.6903ZM42.5342 14.1706C42.484 14.4348 42.4338 14.6989 42.382 14.9711C42.2816 14.9711 42.1811 14.9711 42.0776 14.9711C42.0776 15.0768 42.0776 15.1825 42.0776 15.2913C41.9771 15.2913 41.8767 15.2913 41.7732 15.2913C41.7732 15.397 41.7732 15.5027 41.7732 15.6115C41.6727 15.6115 41.5723 15.6115 41.4688 15.6115C41.24 15.8432 41.24 15.8432 41.0026 16.1519C40.5685 16.689 40.1287 17.219 39.6803 17.7429C39.512 17.9401 39.512 17.9401 39.3403 18.1413C39.1548 18.3541 38.9642 18.5623 38.7647 18.7605C38.5424 18.9644 38.5424 18.9644 38.5768 19.294C38.4764 19.294 38.3759 19.294 38.2724 19.294C38.2724 19.3996 38.2724 19.5053 38.2724 19.6142C38.172 19.6142 38.0715 19.6142 37.968 19.6142C37.968 19.7198 37.968 19.8255 37.968 19.9344C37.8676 19.9344 37.7671 19.9344 37.6636 19.9344C37.4423 20.1966 37.2316 20.4687 37.0262 20.7449C36.546 21.3772 36.0626 21.9693 35.5024 22.5236C35.4119 22.6202 35.3215 22.7168 35.2283 22.8163C35.1546 22.8843 35.081 22.9523 35.0051 23.0223C34.4596 23.5849 34.2517 24.0062 34.209 24.8137C34.2081 25.1632 34.2123 25.5127 34.2205 25.8621C34.2214 26.054 34.2222 26.2459 34.2231 26.4436C34.2265 26.9705 34.2339 27.497 34.2432 28.0238C34.2521 28.5861 34.2558 29.1484 34.2601 29.7107C34.2692 30.7852 34.2832 31.8595 34.2992 32.934C34.3116 33.7655 34.3222 34.5971 34.3315 35.4287C34.3328 35.5436 34.3341 35.6584 34.3354 35.7767C34.338 36.0082 34.3406 36.2396 34.3432 36.471C34.372 39.0113 34.4101 41.5514 34.4506 44.0915C34.4716 45.4058 34.4914 46.7201 34.5113 48.0344C34.5463 50.3554 34.583 52.6764 34.6195 54.9974C37.2816 54.9974 39.9437 54.9974 42.6864 54.9974C42.6864 41.5245 42.6864 28.0517 42.6864 14.1706C42.6362 14.1706 42.586 14.1706 42.5342 14.1706ZM55.1674 33.5133C54.707 34.0025 54.293 34.5178 53.8832 35.0543C53.47 35.5947 53.0535 36.103 52.5799 36.5853C52.1094 37.0645 51.696 37.5689 51.2861 38.1063C50.781 38.7682 50.2529 39.3714 49.6749 39.9625C49.1948 40.4654 48.7532 41.0026 48.3181 41.5486C48.2118 41.6517 48.1055 41.7549 47.996 41.8612C47.5657 42.5934 47.6797 43.2262 47.7426 44.064C47.7626 44.4114 47.7822 44.7589 47.8014 45.1064C47.8173 45.3752 47.8173 45.3752 47.8334 45.6495C47.8782 46.5157 47.8917 47.3819 47.9043 48.2492C47.91 48.5898 47.9158 48.9305 47.9215 49.2711C47.9297 49.7886 47.9377 50.3061 47.9455 50.8235C47.9534 51.3363 47.9621 51.8491 47.9709 52.3619C47.9729 52.5165 47.975 52.6711 47.9771 52.8304C47.9797 52.9749 47.9822 53.1195 47.9848 53.2685C47.9867 53.3942 47.9887 53.5198 47.9906 53.6493C48.0176 54.1019 48.095 54.55 48.1659 54.9974C50.7275 54.9974 53.2892 54.9974 55.9284 54.9974C55.9397 50.6389 55.8987 46.2813 55.8579 41.923C55.8485 40.9214 55.8394 39.9197 55.8303 38.9181C55.8125 36.9664 55.7945 35.0147 55.7762 33.063C55.5035 33.063 55.3529 33.3205 55.1674 33.5133Z" fill="#3F3F41"/>
<path d="M27.0092 0.881897C27.2165 1.31807 27.181 1.66171 27.1817 2.15019C27.1824 2.35224 27.183 2.55429 27.1837 2.76246C27.1836 2.98762 27.1836 3.21279 27.1835 3.43795C27.1839 3.67408 27.1845 3.91021 27.185 4.14635C27.1864 4.78873 27.1867 5.43112 27.1868 6.07351C27.187 6.60909 27.1875 7.14466 27.1881 7.68024C27.1893 8.94326 27.1897 10.2063 27.1896 11.4693C27.1895 12.774 27.1911 14.0787 27.1935 15.3834C27.1955 16.5022 27.1963 17.621 27.1962 18.7397C27.1962 19.4085 27.1966 20.0773 27.1982 20.7462C27.1997 21.3748 27.1997 22.0035 27.1986 22.6322C27.1984 22.8634 27.1988 23.0946 27.1997 23.3258C27.2009 23.6404 27.2 23.9551 27.199 24.2698C27.1991 24.4462 27.1992 24.6225 27.1993 24.8043C27.1614 25.2179 27.1614 25.2179 26.857 25.5381C25.5135 25.4655 24.1713 25.0601 22.871 24.7175C22.4874 24.6181 22.1037 24.5189 21.72 24.4198C21.6204 24.394 21.5208 24.3682 21.4181 24.3417C20.6258 24.137 19.8319 23.9395 19.0373 23.7444C18.9189 23.7153 18.8005 23.6862 18.6784 23.6562C18.2097 23.5411 17.7409 23.4261 17.2719 23.3118C16.9465 23.2325 16.6212 23.1526 16.2958 23.0727C16.1087 23.027 15.9216 22.9813 15.7288 22.9342C15.2892 22.8163 15.2892 22.8163 14.9848 22.6562C14.9855 22.8154 14.9862 22.9747 14.9869 23.1388C15.0177 30.6514 15.0125 38.1604 14.8421 45.6713C14.8388 45.8205 14.8355 45.9698 14.832 46.1236C14.8098 47.1194 14.7863 48.1152 14.7619 49.111C14.7589 49.2353 14.7559 49.3595 14.7529 49.4875C14.75 49.6075 14.7471 49.7275 14.7441 49.8511C14.7416 49.9542 14.7391 50.0573 14.7366 50.1635C14.6918 51.7785 14.609 53.3818 14.5282 54.9974C18.6469 54.9974 22.7656 54.9974 27.0092 54.9974C27.2354 55.4733 27.1814 55.9094 27.1804 56.4383C27.1808 56.6398 27.1812 56.8412 27.1816 57.0487C27.1614 57.5591 27.1614 57.5591 27.0092 57.8793C21.8733 57.8829 16.7375 57.8858 11.6017 57.8874C10.996 57.8876 10.3903 57.8879 9.78463 57.8881C9.60375 57.8881 9.60375 57.8881 9.41922 57.8882C7.46411 57.8889 5.509 57.8902 3.55389 57.8916C1.54927 57.8931 14.0047 57.894 12 57.8943C10.7621 57.8945 9.52413 57.8952 8.28617 57.8965C7.33852 57.8975 6.39087 57.8976 5.44322 57.8974C5.05328 57.8974 4.66333 57.8977 4.27339 57.8983C3.74355 57.8991 3.21373 57.899 2.68389 57.8985C2.52739 57.899 2.3709 57.8994 2.20966 57.8999C2.06885 57.8996 1.92805 57.8993 1.78297 57.899C1.6605 57.899 1.53803 57.8991 1.41185 57.8991C1.13432 57.8793 1.13432 57.8793 0.982113 57.7192C0.966921 57.2905 0.960987 56.8669 0.963087 56.4383C0.962499 56.3182 0.96191 56.1981 0.961304 56.0743C0.962842 55.1777 0.962842 55.1777 1.13432 54.9974C1.3962 54.98 1.65875 54.9739 1.92114 54.972C2.17696 54.9697 2.17696 54.9697 2.43794 54.9673C2.62669 54.9664 2.81543 54.9654 3.00989 54.9645C3.20736 54.9629 3.40483 54.9613 3.60828 54.9597C4.15136 54.9554 4.69443 54.952 5.23751 54.9488C5.80448 54.9453 6.37144 54.9409 6.9384 54.9366C8.01273 54.9286 9.08706 54.9214 10.1614 54.9145C11.3842 54.9066 12.607 54.8978 13.8298 54.889C16.3458 54.8707 4.40182 54.8536 6.91786 54.8373C6.76348 54.7896 6.6091 54.742 6.45005 54.6928C5.87732 54.516 5.30462 54.339 4.73193 54.162C4.48405 54.0854 4.23617 54.0089 3.98828 53.9323C3.63198 53.8223 3.27571 53.7122 2.91945 53.6021C2.75319 53.5508 2.75319 53.5508 2.58357 53.4985C2.14877 53.364 1.7162 53.2269 1.2862 53.0761C1.08233 52.4328 1.11283 51.8138 1.11429 51.1431C1.11389 50.92 1.1139 50.92 1.11349 50.6925C1.11282 50.1999 1.11326 49.7074 1.11378 49.2148C1.11367 48.8728 1.11352 48.5308 1.11333 48.1888C1.11311 47.4715 1.11344 46.7541 1.11415 46.0367C1.11501 45.1174 1.11452 44.198 1.1136 43.2786C1.11305 42.5721 1.11323 41.8656 1.11362 41.159C1.11372 40.8201 1.1136 40.4811 1.11325 40.1422C1.11286 39.6681 1.11345 39.194 1.11429 38.7199C1.11399 38.5798 1.11368 38.4397 1.11336 38.2954C1.11549 37.6507 1.13272 37.0543 1.2862 36.4252C1.38665 36.4252 1.48711 36.4252 1.59061 36.4252C1.63072 36.3307 1.67083 36.2362 1.71216 36.1388C1.9026 35.7701 2.10021 35.5344 2.38554 35.2432C2.48001 35.1456 2.57448 35.0479 2.67182 34.9474C2.77021 34.8473 2.86861 34.7472 2.96999 34.644C3.16553 34.4438 3.36076 34.2433 3.55563 34.0424C3.68544 33.9102 3.68544 33.9102 3.81787 33.7753C4.04226 33.5475 4.04226 33.5475 4.17813 33.2231C4.27859 33.2231 4.37904 33.2231 4.48254 33.2231C4.53277 33.0646 4.583 32.9061 4.63475 32.7428C4.73521 32.7428 4.83567 32.7428 4.93917 32.7428C4.99332 32.6074 4.99332 32.6074 5.04856 32.4692C5.28763 32.0195 5.57853 31.7168 5.92851 31.3563C6.0635 31.216 6.19849 31.0758 6.33756 30.9313C6.47883 30.7861 6.6201 30.6409 6.76565 30.4913C7.04503 30.2029 7.32409 29.9142 7.60279 29.6251C7.72679 29.4976 7.85079 29.37 7.97855 29.2386C8.30986 28.896 8.30986 28.896 8.59213 28.42C8.69259 28.42 8.79305 28.42 8.89655 28.42C8.92794 28.3341 8.95933 28.2482 8.99167 28.1598C9.28201 27.6323 9.66492 27.2042 10.1142 26.8189C10.2147 26.8189 10.3151 26.8189 10.4186 26.8189C10.4563 26.7198 10.494 26.6208 10.5328 26.5187C10.7592 26.1139 10.9417 26.0635 11.3319 25.8583C11.3721 25.7666 11.4123 25.675 11.4537 25.5806C11.7024 25.0864 12.044 24.7651 12.4258 24.3773C12.6435 24.1557 12.861 23.9337 13.0726 23.7056C13.3106 23.4567 13.3105 23.4567 13.5855 23.2181C14.0878 22.7292 14.3465 22.3556 14.4645 21.6363C14.4839 21.0877 14.4863 20.5472 14.4706 19.9988C14.4608 19.6301 14.459 19.2621 14.4594 18.8932C14.4596 17.8458 14.4491 16.7989 14.4252 15.7518C14.3263 11.0923 14.3263 11.0923 15.2094 10.0105C15.7025 9.54074 16.2296 9.19425 16.8249 8.88575C17.2401 8.65915 17.5802 8.35593 17.9338 8.03659C18.4469 7.60631 18.4469 7.60631 18.79 7.60631C18.79 7.50064 18.79 7.39497 18.79 7.2861C19.0748 7.01404 19.0748 7.01404 19.4654 6.69571C19.6033 6.58282 19.7413 6.46992 19.8834 6.35361C20.0249 6.23865 20.1663 6.1237 20.3121 6.00526C20.4425 5.89525 20.573 5.78525 20.7074 5.67191C20.8281 5.57058 20.9488 5.46924 21.0731 5.36484C21.183 5.27238 21.2928 5.17991 21.4061 5.08465C21.6819 4.88452 21.6819 4.88452 21.9863 4.88452C21.9863 4.77885 21.9863 4.67318 21.9863 4.56431C22.2378 4.32728 22.2378 4.32728 22.5857 4.05398C22.7097 3.95574 22.8337 3.8575 22.9614 3.75628C23.0917 3.65309 23.222 3.5499 23.3562 3.44358C23.7196 3.13922 24.0826 2.8344 24.4448 2.5286C24.7261 2.32284 24.7261 2.32284 25.0305 2.32284C25.0305 2.21717 25.0305 2.1115 25.0305 2.00263C25.3087 1.7262 25.3087 1.7262 25.6774 1.42225C25.7974 1.32112 25.9175 1.21999 26.0412 1.1158C26.4003 0.881897 26.4003 0.881897 27.0092 0.881897Z" fill="#F58B1E"/>
</svg>
