<svg id="Layer_1" data-name="Layer 1" xmlns="http://www.w3.org/2000/svg" viewBox="0 0 145.73 120.01"><defs><style>.cls-1{fill:#404042;}.cls-2{fill:#f58d24;}</style></defs><path class="cls-1" d="M125,75.72a2.08,2.08,0,0,0,1,.22h18.06c1.64,0,1.64,0,1.64,1.66s0,1.69-1.7,1.69h-77c-.48,0-1.18.19-1.4,0s-.11-.94-.11-1.44q0-38.52,0-77.05c0-.58,0-.82.76-.72,1.12.15,2.19.53,3.3.75,1.86.38,3.7.85,5.55,1.29s3.47.88,5.21,1.3c1,.24,2,.51,3,.66,1.43.21,1.62.37,1.61,1.84,0,3.83-.18,7.67,0,11.48.09,1.66-.85,2.44-1.71,3.38-3.27,3.62-6.59,7.19-9.9,10.78a1.26,1.26,0,0,0-.43.94c0,6.43.07,12.87.13,19.3.08,7.74.36,15.47.34,23.21,0,.7.26.93,1,.92,3.46-.05,6.93,0,10.4,0,.93,0,1,0,1-1,0-4.94,0-9.88,0-14.81,0-7,0-13.93,0-20.89S86,25,86,17.92c0-.68.3-.71.77-.48a26.6,26.6,0,0,0,4,1.37c1.27.43,2.55.87,3.83,1.27,1.73.55,3.47,1.08,5.2,1.62l5.13,1.62c.56.18.57.68.57,1.17v5.9c0,3.73,0,7.47,0,11.2v.74c0,.11,0,.22,0,.33s.05.48.08.71l-.93,1c-.93,1-1.86,2-2.78,3.08l-8.78,9.76a1.68,1.68,0,0,0-.42,1.29c.12,1.77.23,3.54.28,5.31.11,3.52.18,7,.26,10.56,0,1.48.06,1.53,1.56,1.54h9.4a3.45,3.45,0,0,0,1.23-.16q9.14,0,18.29,0A2.9,2.9,0,0,0,125,75.72Z"/><path class="cls-2" d="M32.75,79.32H4.38c-1.23,0-1.25,0-1.25-1.28,0-2.21,0-2.21,2.2-2.21H34.11a4.1,4.1,0,0,0,.5,0c.14,0,.3,0,.32-.2s-.13-.23-.25-.27l-2.3-.68c-2.27-.66-4.54-1.33-6.83-1.94-.7-.18-.81-.58-.81-1.2,0-4.8,0-9.6,0-14.4,0-2,0-4,0-6.07a2.29,2.29,0,0,1,.7-1.75c2.73-2.81,5.44-5.65,8.19-8.43,2.2-2.22,4.36-4.45,6.49-6.73,1.35-1.44,2.75-2.84,4.15-4.23.27-.27.2-.55.2-.84,0-4.55.05-9.1,0-13.64A2.69,2.69,0,0,1,45.77,13c2.35-1.77,4.61-3.64,6.91-5.48l7-5.64C60.24,1.46,60.82,1,61.38.5c.22-.18.42-.42.72-.26a.73.73,0,0,1,.43.74c0,.55-.13,1.1-.13,1.65q0,15.06,0,30.12c0,1.14,0,1.24-1.18,1-2.38-.49-4.74-1.06-7.11-1.6l-4.83-1.1c-1.31-.3-2.62-.58-3.92-.92-.73-.19-1,0-.91.75.27,4.69.18,9.37.09,14.06-.1,5.45-.13,10.91-.32,16.37q-.24,6.57-.28,13.13a1.6,1.6,0,0,1,0,.49c-.2.7.12.89.76.89H57.38c1.39,0,2.78,0,4.16,0,.6,0,.86.22.86.83,0,3.21.34,2.65-2.52,2.66Q46.3,79.34,32.75,79.32Z"/><path class="cls-2" d="M125,75.72a2.9,2.9,0,0,1-1.31.08q-9.15,0-18.29,0,0-7.22,0-14.44,0-8.32-.1-16.66c0-.49-.27-.46-.6-.28l.93-1a15.44,15.44,0,0,1,4,1c2.81.8,5.61,1.6,8.41,2.43,1.63.49,3.24,1,4.88,1.54,2.69.79,2.12.54,2.13,3C125,59.41,125,67.56,125,75.72Z"/><path class="cls-2" d="M125.67,84.15c-.33,2.72-1,5.26-1.54,7.84s-1.18,5.32-1.69,8c-.11.53-.25,1.06-.31,1.61a1,1,0,0,1-1.11,1h-3.83a1.07,1.07,0,0,1-1.15-1c-.34-1.42-.59-2.85-.88-4.28a39.55,39.55,0,0,0-1.09-4,5.07,5.07,0,0,1-.23-1.21c0-.29,0-.69-.39-.71a.64.64,0,0,0-.67.62,17.77,17.77,0,0,1-.8,3.37c-.5,2.06-1.08,4.1-1.61,6.15a.94.94,0,0,1-1.1.83c-1.1-.06-2.22-.05-3.32,0a1.05,1.05,0,0,1-1.24-.94,10.58,10.58,0,0,1-.32-1.95,6.49,6.49,0,0,0-.5-1.7c-.29-1-.51-2-.74-2.94s-.47-2.15-.72-3.23c-.46-2-.89-4-1.32-6a5.39,5.39,0,0,1-.1-.91c0-.37.14-.56.53-.56,1.39,0,2.77,0,4.16,0,.57,0,.69.41.76.82.37,2.07.73,4.13,1.07,6.21a6.8,6.8,0,0,1,.33,1.6.27.27,0,0,0,.23.3c.2,0,.22-.13.25-.26l1-4.08c.35-1.36.68-2.72,1.06-4.07a.77.77,0,0,1,.84-.53h4c.55,0,.79.26.94.82.59,2.3,1.24,4.58,1.87,6.86.05.19,0,.39.1.57s-.1.67.29.67.31-.44.34-.67c.26-2.48,1.06-4.86,1.25-7.35a.85.85,0,0,1,.87-.9C122.52,84.13,124.1,84.15,125.67,84.15Z"/><path class="cls-2" d="M53.83,103a12.32,12.32,0,0,1-4.08-.57C47.54,101.79,46,99,45.81,97c-.06-.61.13-1,.82-.89a18.29,18.29,0,0,0,3-.25c.83,0,1.66-.05,1.82,1.16.06.5.67.81,1.14,1a3.35,3.35,0,0,0,3,0,1.32,1.32,0,0,0,.78-1.34c0-.53-.43-.82-.89-1.1-1.11-.65-2.38-.62-3.56-1-2-.57-3.9-1.32-5-3.28-.67-1.19-.56-4.23.66-5.47a6.14,6.14,0,0,1,4.24-2.11c2.17-.08,4.35-.31,6.44.64a5,5,0,0,1,2.45,2.44c.19.4.34.81.51,1.22.4,1,.07,1.48-1,1.49s-2.26.06-3.4.1a1,1,0,0,1-1.05-.55c-.56-1-3.19-1.24-3.78-.32-.36.55-.32.85.22,1.21.9.6,2,.49,2.94.78a19.41,19.41,0,0,1,4.46,1.63,5.45,5.45,0,0,1,2.31,5c-.41,3.65-3.73,5.5-6.84,5.58Z"/><path class="cls-2" d="M73.16,84.15h1.66c1.57,0,1.64.07,2.12,1.51.91,2.73,1.9,5.44,2.88,8.15s1.84,5.22,2.78,7.82c.18.49.06.8-.56.79-1.44,0-2.88,0-4.32,0a.85.85,0,0,1-.94-.73,6.36,6.36,0,0,1-.35-1.18c-.07-.84-.6-1.06-1.3-1.06-1.44,0-2.88,0-4.32,0-1,0-.84.9-1.14,1.43a3,3,0,0,0-.24.87.78.78,0,0,1-.88.69c-1.38,0-2.77,0-4.15,0-.58,0-.8-.15-.55-.8.9-2.38,1.73-4.79,2.6-7.18s1.88-5,2.75-7.55c.25-.73.55-1.43.78-2.16a.69.69,0,0,1,.77-.57h2.41Zm.12,10.91v0c.25,0,.5,0,.75,0,.9,0,1-.05.7-.93l-1.08-3.77c-.08-.25-.06-.62-.43-.63s-.38.36-.46.6q-.57,1.81-1.08,3.63c-.26.94-.12,1.12.86,1.12Z"/><path class="cls-2" d="M135.81,84.16c.75,0,1.5,0,2.25,0s.92.3,1.12.84c.89,2.4,1.68,4.84,2.57,7.25s1.7,5.09,2.54,7.64c.19.57.37,1.14.59,1.7s.11.8-.49.79h-4.08a1,1,0,0,1-1-.81,10.27,10.27,0,0,1-.34-1.26c-.12-.81-.55-.87-1.19-.85-1.33,0-2.66,0-4,0s-1.51.06-1.78,1.42-.38,1.48-1.78,1.49l-3,0c-.79,0-.93-.23-.68-1,.64-2,1.38-4,2.12-6,.87-2.35,1.4-4.8,2.44-7.09a28.54,28.54,0,0,0,1.2-3.4,1,1,0,0,1,1-.78Zm-.2,10.89h0c.45,0,.89,0,1.33,0s.66-.23.53-.67c-.49-1.6-1-3.2-1.51-4.8-.05-.17-.09-.4-.35-.38s-.25.2-.29.35c-.43,1.42-.87,2.82-1.27,4.24-.34,1.17-.25,1.26,1,1.25Z"/><path class="cls-2" d="M9.27,84.33h2.58c.27,0,.52,0,.65.36,1.14,3.24,2.3,6.48,3.45,9.71q1.2,3.42,2.41,6.82c.34,1,.24,1.12-.78,1.13H14c-.56,0-1-.13-1-.8a1.17,1.17,0,0,0-.12-.39c-.67-1.73-.67-1.73-2.58-1.73H7c-.84,0-1.19.37-1.4,1.46-.24,1.33-.37,1.47-1.69,1.5-1.08,0-2.16,0-3.24,0-.57,0-.73-.33-.55-.83C.86,99.38,1.68,97.2,2.44,95c.88-2.55,1.91-5,2.7-7.62a19.26,19.26,0,0,0,1-2.7c.06-.36.39-.35.66-.36h2.5Zm0,10.73c.38,0,.77,0,1.15,0,.59,0,.8-.26.61-.74-.58-1.49-.9-3.06-1.41-4.56-.06-.19-.11-.51-.37-.49s-.34.31-.41.56c-.3,1.11-.6,2.22-.92,3.33C7.31,95.18,7,95.08,9.24,95.06Z"/><path class="cls-2" d="M92.4,84.15c1.94,0,3.88,0,5.82,0,.65,0,.9.19.86.86,0,.94,0,1.89,0,2.83,0,.63-.17.9-.85.89-2,0-4.11,0-6.16,0-.86,0-.81.44-.85,1s.26.81.87.82a45.4,45.4,0,0,0,4.81,0c.65-.06,1.11.2,1.06,1a26.21,26.21,0,0,0,0,2.66c0,.66-.24.88-.88.87-1.69,0-3.38,0-5.07,0-.65,0-.84.17-.81.86a32,32,0,0,1,0,4.9c-.06.52.49,1.2-.2,1.51a4.17,4.17,0,0,1-1.63.14c-1,0-1.94-.07-2.91,0-.7,0-.85-.35-.83-.93.18-5.16,0-10.32.07-15.47,0-1.88,0-1.88,1.94-1.88Z"/><path class="cls-2" d="M28.64,102.42H22.56c-1,0-1.15-.21-1-1.21a13.19,13.19,0,0,0,.06-1.41c0-4.85,0-9.71,0-14.56,0-.75.29-1.07,1-1.08h3.66c.63,0,.87.24.86.9,0,3.94,0,7.88,0,11.82,0,1.06.09,1.15,1.12,1.16,2.19,0,4.39,0,6.58,0,.65,0,.9.21.87.86,0,.86,0,1.72,0,2.58,0,.69-.21,1-1,1C32.69,102.39,30.66,102.42,28.64,102.42Z"/><path class="cls-1" d="M137.14,114.88c.08.94.16,1.88.26,2.81a2.11,2.11,0,0,0,.77,1.33c.19.18.39.35.25.63a.6.6,0,0,1-.62.32c-.74,0-1.49,0-2.24,0-.23,0-.45,0-.55-.27a.47.47,0,0,1,.13-.6,3.45,3.45,0,0,0,1-2.73c.1-1.4,0-2.82.07-4.23a1.06,1.06,0,0,0-.64-1.07c-.18-.09-.33-.22-.29-.45s.27-.34.5-.34c.61,0,1.22,0,1.83,0a1,1,0,0,1,.8.53c1.16,1.54,2.34,3.09,3.51,4.62.18.23.32.62.68.49s.16-.49.17-.75a9.39,9.39,0,0,0-.28-2.8,1.94,1.94,0,0,0-.69-1.19.59.59,0,0,1-.3-.64c.1-.31.38-.28.63-.28h2.24c.25,0,.52,0,.61.3s-.08.41-.26.56a2.37,2.37,0,0,0-.87,1.8c-.18,2,0,3.94-.09,5.9,0,.4.16.94-.35,1.09s-.71-.38-.94-.69c-1.51-2-3-4-4.47-6-.16-.22-.29-.58-.59-.5s-.21.51-.23.79c0,.44,0,.89,0,1.33Z"/><path class="cls-1" d="M29.92,114.82c.09,1,.17,1.93.26,2.9A2.12,2.12,0,0,0,31,119a.52.52,0,0,1,.19.66c-.12.24-.33.26-.56.26H28.35a.52.52,0,0,1-.55-.28.49.49,0,0,1,.12-.61,3.6,3.6,0,0,0,1-2.81c.09-1.38,0-2.77.06-4.15a1.09,1.09,0,0,0-.65-1.06c-.2-.11-.4-.25-.31-.52s.33-.27.56-.27c.5,0,1,0,1.49,0a1.23,1.23,0,0,1,1.13.56c1.15,1.56,2.33,3.1,3.51,4.64.16.21.31.56.61.48s.21-.51.22-.78a9.74,9.74,0,0,0-.24-2.64,2.33,2.33,0,0,0-.8-1.42.48.48,0,0,1-.21-.58c.11-.25.34-.26.56-.26H37.1c.25,0,.52,0,.61.29a.53.53,0,0,1-.22.58,2.54,2.54,0,0,0-.91,2.14c0,1.78,0,3.55,0,5.33,0,.25,0,.5,0,.74s-.08.51-.37.59-.41-.13-.55-.3c-.83-1.07-1.65-2.14-2.47-3.23s-1.62-2.17-2.43-3.26c-.16-.22-.3-.54-.62-.42s-.16.43-.15.67c0,.47,0,.94.06,1.41Z"/><path class="cls-1" d="M125.19,120a4.46,4.46,0,0,1-4.14-2.87,5.1,5.1,0,0,1,1.94-5.8c2.26-1.72,6.2-1.32,7.66,1.1a5,5,0,0,1-1.19,6.09A5.72,5.72,0,0,1,125.19,120Zm4-4a5.2,5.2,0,0,0-1.45-3.78,2.94,2.94,0,0,0-2.74-1,2.73,2.73,0,0,0-2.08,2.33,5.16,5.16,0,0,0,2,5.05,2.4,2.4,0,0,0,2.8.16A3.27,3.27,0,0,0,129.21,116Z"/><path class="cls-1" d="M66.27,110.28c.77,0,1.55,0,2.32,0a1.7,1.7,0,0,1,1.74,1.9,3.38,3.38,0,0,1-1.5,2.66c-.56.42-.63.79-.16,1.35.84,1,1.4,2.28,2.64,2.93a.38.38,0,0,1,.19.5.49.49,0,0,1-.47.29c-1.2,0-2.37,0-3-1.35a13.48,13.48,0,0,0-1.2-2c-.1-.15-.26-.35-.47-.28s-.16.32-.16.5c0,.92-.21,1.9.92,2.46.44.22.08.58-.23.6-1.11.06-2.22.06-3.32.06a.36.36,0,0,1-.36-.3.34.34,0,0,1,.27-.44c.78-.23.86-.85.86-1.52,0-1.74,0-3.49,0-5.24,0-.61-.09-1.17-.82-1.36a.39.39,0,0,1-.32-.5c.07-.27.31-.29.54-.29h2.5Zm0,2.47h0a7.66,7.66,0,0,0,0,.83,1.15,1.15,0,0,0,1.05,1.1c.6.09.88-.43,1-.9a2.42,2.42,0,0,0-.07-1.55c-.25-.61-.54-1.25-1.33-1.12s-.69.81-.67,1.39A2.09,2.09,0,0,1,66.24,112.75Z"/><path class="cls-1" d="M19.24,110.27a4.45,4.45,0,0,1,3.47,1.29,4.63,4.63,0,0,1,.72,5.43,5.83,5.83,0,0,1-7.31,2.5c-2.89-1.25-3.44-5.13-1.05-7.54A5.18,5.18,0,0,1,19.24,110.27ZM22,115.94a4.89,4.89,0,0,0-2.39-4.45,2.55,2.55,0,0,0-3.76,1.42,5.21,5.21,0,0,0,1.82,5.63,2.52,2.52,0,0,0,3.4-.25A3.43,3.43,0,0,0,22,115.94Z"/><path class="cls-1" d="M75.82,114.78c0-.69,0-1.39,0-2.08A1.56,1.56,0,0,0,75,111a.35.35,0,0,1-.25-.39.37.37,0,0,1,.37-.28c1.11,0,2.22,0,3.33,0a.33.33,0,0,1,.35.28.4.4,0,0,1-.32.5c-.61.15-.75.63-.76,1.15a35.62,35.62,0,0,0,.08,5.06,2.29,2.29,0,0,0,4.45.17,14.76,14.76,0,0,0-.1-5,1.94,1.94,0,0,0-.77-1.34.46.46,0,0,1-.21-.57.47.47,0,0,1,.47-.28c.83,0,1.66,0,2.49,0,.46,0,.73.32.34.71-1,1-1,2.4-1.12,3.71,0,.58,0,1.16,0,1.75,0,2-.46,2.75-2.4,3.33a4.76,4.76,0,0,1-4.25-.72,1.91,1.91,0,0,1-.85-1.63v-2.66Z"/><path class="cls-1" d="M94.19,110.28a5.47,5.47,0,0,1,2.32.3.77.77,0,0,1,.63.84c0,.47,0,.94,0,1.41s-.09.62-.48.67-.47-.21-.56-.49a2.57,2.57,0,0,0-2.58-2,3.25,3.25,0,0,0-2.75,2.34,4.13,4.13,0,0,0,2.14,5c1,.54,1.92,0,2.81-.42a6.37,6.37,0,0,0,.75-.53c.25-.18.56-.39.79-.06s0,.58-.28.77a9.14,9.14,0,0,1-2.57,1.49,4.11,4.11,0,0,1-5.52-2.48,5.07,5.07,0,0,1,3-6.56A4.21,4.21,0,0,1,94.19,110.28Z"/><path class="cls-1" d="M41.89,117.89c.14-.33-.45-1,.36-1.17s.63.58.78,1c.45,1.27,1.69,1.73,2.5.94a1.35,1.35,0,0,0,.1-1.87,10.77,10.77,0,0,0-2.38-1.93,2.43,2.43,0,0,1-1.18-2c0-1.5,1.48-2.38,2.86-2.62a4.34,4.34,0,0,1,1.08,0,1.57,1.57,0,0,1,1.48,2.26A.53.53,0,0,1,47,113a.46.46,0,0,1-.51-.34,2.76,2.76,0,0,0-.53-1c-.55-.62-1-.69-1.57-.24a1,1,0,0,0-.12,1.59,8.41,8.41,0,0,0,2.11,1.74c1,.67,1.78,1.45,1.48,2.8A3.2,3.2,0,0,1,46,119.57a4.4,4.4,0,0,1-3.67,0,.65.65,0,0,1-.45-.63C41.87,118.63,41.89,118.3,41.89,117.89Z"/><path class="cls-1" d="M56.65,115c0,1,0,2,0,3a1,1,0,0,0,.67,1.12c.26.1.45.24.34.56a.51.51,0,0,1-.6.33,16.74,16.74,0,0,0-2.65,0c-.35,0-.63-.1-.71-.44s.23-.38.46-.48a1,1,0,0,0,.55-1c0-2.08,0-4.16,0-6.24,0-.74-.27-.88-.94-.61a1.6,1.6,0,0,0-1.07,1.17c-.07.31-.17.65-.56.6s-.46-.42-.45-.78,0-.94,0-1.41.28-.73.86-.66a23.28,23.28,0,0,0,6.35,0c.51-.08.75.07.77.57s0,1.11,0,1.66c0,.33-.09.64-.47.67s-.45-.27-.51-.55a1.64,1.64,0,0,0-1.11-1.25c-.67-.28-.93-.13-.94.61C56.64,112.85,56.65,113.9,56.65,115Z"/><path class="cls-1" d="M6.48,110.28a5.31,5.31,0,0,1,2.2.29.84.84,0,0,1,.69,1c0,.27,0,.55,0,.83s.15.9-.43,1-.64-.37-.77-.71a2.42,2.42,0,0,0-1.32-1.41,2.7,2.7,0,0,0-3.2.84,4.24,4.24,0,0,0,.79,6,2.62,2.62,0,0,0,2.9.23c.48-.27.94-.58,1.4-.89.23-.15.47-.4.71-.09s.05.53-.17.73a7.3,7.3,0,0,1-2.08,1.35c-2.25,1-4.7.64-5.85-1.73a5,5,0,0,1,2.47-6.93A4.47,4.47,0,0,1,6.48,110.28Z"/><path class="cls-1" d="M106,114.86c0,1,0,1.89,0,2.83a1.39,1.39,0,0,0,.7,1.4c.2.1.41.22.35.49s-.28.32-.52.32c-1,0-2-.05-3,.07a.42.42,0,0,1-.46-.39.36.36,0,0,1,.3-.43c.69-.19.75-.73.75-1.31,0-1.91,0-3.83,0-5.74,0-.35.13-.8-.28-1a1.19,1.19,0,0,0-1.21.35,2.17,2.17,0,0,0-.61,1.07.45.45,0,0,1-.48.38.46.46,0,0,1-.43-.51c0-.61,0-1.22,0-1.83s.33-.54.76-.48a27.15,27.15,0,0,0,6.37,0c.61-.07.83.12.85.67s0,1,0,1.5c0,.27,0,.52-.34.59s-.53-.14-.62-.42a1.82,1.82,0,0,0-1.17-1.3c-.68-.23-.94-.11-1,.62C106,112.81,106,113.84,106,114.86Z"/><path class="cls-1" d="M114.85,110.27h1.33c.22,0,.47,0,.54.26a.4.4,0,0,1-.25.47c-.73.28-.72.88-.71,1.51,0,1.77,0,3.55,0,5.32,0,.56,0,1,.67,1.28a.38.38,0,0,1,.29.51c-.08.24-.3.3-.54.3h-2.74c-.24,0-.44-.07-.5-.34a.35.35,0,0,1,.27-.44c.67-.24.71-.79.71-1.36v-5.32c0-.6,0-1.19-.74-1.4a.41.41,0,0,1,.18-.78Z"/><path class="cls-2" d="M105.5,41.59c0-3.73,0-7.47,0-11.2.2-.12.15.08.15.13V41.46a.37.37,0,0,1,0,.15Z"/><path class="cls-2" d="M105.49,42.66c0-.11,0-.22,0-.33.2-.11.14.08.14.15S105.69,42.73,105.49,42.66Z"/></svg>