<?xml version="1.0" encoding="utf-8"?>
<!-- Generator: Adobe Illustrator 24.1.1, SVG Export Plug-In . SVG Version: 6.00 Build 0)  -->
<svg version="1.1" id="Layer_1" xmlns="http://www.w3.org/2000/svg" xmlns:xlink="http://www.w3.org/1999/xlink" x="0px" y="0px"
	 viewBox="0 0 142.6 79.3" style="enable-background:new 0 0 142.6 79.3;" xml:space="preserve">
<style type="text/css">
	.st0{fill:#404042;}
	.st1{fill:#F58D24;}
</style>
<g>
	<path class="st0" d="M121.9,75.7c0.3,0.2,0.7,0.2,1,0.2h18.1c1.6,0,1.6,0,1.6,1.7s0,1.7-1.7,1.7h-77c-0.5,0-1.2,0.2-1.4,0
		s-0.1-0.9-0.1-1.4V0.7c0-0.6,0-0.8,0.8-0.7c1.1,0.2,2.2,0.5,3.3,0.8c1.9,0.4,3.7,0.9,5.6,1.3s3.5,0.9,5.2,1.3c1,0.2,2,0.5,3,0.7
		c1.4,0.2,1.6,0.4,1.6,1.8c0,3.8-0.2,7.7,0,11.5c0.1,1.7-0.8,2.4-1.7,3.4c-3.3,3.6-6.6,7.2-9.9,10.8c-0.3,0.2-0.4,0.6-0.4,0.9
		c0,6.4,0.1,12.9,0.1,19.3c0.1,7.7,0.4,15.5,0.3,23.2c0,0.7,0.3,0.9,1,0.9c3.5-0.1,6.9,0,10.4,0c0.9,0,1,0,1-1V39.2
		c0-7,0.3-14.2,0.3-21.3c0-0.7,0.3-0.7,0.8-0.5c1.3,0.6,2.6,1,4,1.4c1.3,0.4,2.6,0.9,3.8,1.3c1.7,0.5,3.5,1.1,5.2,1.6l5.1,1.6
		c0.6,0.2,0.6,0.7,0.6,1.2v18.2c0,0.1,0,0.5,0.1,0.7l-0.9,1c-0.9,1-1.9,2-2.8,3.1L90,57.2c-0.3,0.3-0.5,0.8-0.4,1.3
		c0.1,1.8,0.2,3.5,0.3,5.3c0.1,3.5,0.2,7,0.3,10.6c0,1.5,0.1,1.5,1.6,1.5h9.3c0.4,0,0.8,0,1.2-0.2h18.3
		C121,75.8,121.4,75.8,121.9,75.7z"/>
	<path class="st1" d="M29.6,79.3H1.3C0,79.3,0,79.3,0,78c0-2.2,0-2.2,2.2-2.2H31c0.2,0,0.3,0,0.5,0c0.1,0,0.3,0,0.3-0.2
		s-0.1-0.2-0.3-0.3l-2.3-0.7c-2.3-0.6-4.6-1.4-6.9-2c-0.7-0.2-0.8-0.6-0.8-1.2V51c0-0.7,0.2-1.3,0.7-1.8c2.7-2.8,5.4-5.7,8.2-8.4
		c2.2-2.2,4.4-4.5,6.5-6.7c1.3-1.4,2.8-2.8,4.2-4.2c0.3-0.3,0.2-0.5,0.2-0.8c0-4.5,0-9.1,0-13.6c0-1,0.5-1.9,1.3-2.4
		c2.4-1.8,4.6-3.6,6.9-5.5l7-5.6c0.6-0.4,1.1-0.9,1.7-1.4C58.5,0.3,58.7,0,59,0.2c0.3,0.1,0.5,0.4,0.4,0.7c0,0.6-0.1,1.1-0.1,1.6
		v30.1c0,1.1,0,1.2-1.2,1c-2.4-0.5-4.7-1.1-7.1-1.6L46.2,31c-1.3-0.3-2.6-0.6-3.9-0.9c-0.7-0.2-1,0-0.9,0.8
		c0.3,4.7,0.2,9.4,0.1,14.1c-0.1,5.5-0.1,10.9-0.3,16.4c-0.2,4.4-0.3,8.8-0.3,13.1c0,0.2,0,0.3,0,0.5c-0.2,0.7,0.1,0.9,0.8,0.9h16.8
		c0.6,0,0.9,0.2,0.9,0.8c0,3.2,0.3,2.7-2.5,2.7C47.7,79.3,38.7,79.3,29.6,79.3z"/>
	<path class="st1" d="M121.9,75.7c-0.4,0.1-0.9,0.2-1.3,0.1h-18.3V61.3c0-5.5,0-11.1-0.1-16.7c0-0.5-0.3-0.5-0.6-0.3l0.9-1
		c1.4,0.2,2.7,0.5,4,1c2.8,0.8,5.6,1.6,8.4,2.4c1.6,0.5,3.2,1,4.9,1.5c2.7,0.8,2.1,0.5,2.1,3C121.9,59.4,121.9,67.5,121.9,75.7z"/>
	<path class="st1" d="M102.4,41.5V30.3c0.2-0.1,0.2,0.1,0.2,0.1v10.9c0,0,0,0.1,0,0.2L102.4,41.5z"/>
	<path class="st1" d="M102.4,42.6v-0.3c0.2-0.1,0.1,0.1,0.1,0.2S102.6,42.7,102.4,42.6z"/>
</g>
</svg>
