<svg width="28" height="29" viewBox="0 0 28 29" fill="none" xmlns="http://www.w3.org/2000/svg">
<path d="M7.05661 11.1035C9.13439 16.7717 11.2854 19.0332 16.7577 21.442L14.3861 24.7726C8.10232 21.7642 4.97248 16.693 3.49843 12.7355L7.05661 11.1035Z" fill="#F68B1E"/>
<path d="M7.79963 1.27857C8.91067 1.27423 9.75545 2.19872 9.67972 3.24557C9.56053 4.89295 9.68742 6.08151 10.0291 7.55477C10.2168 8.36404 9.79218 9.18597 9.11744 9.71538C8.20799 10.4289 7.51318 11.3382 6.96097 12.1209C6.19558 13.2057 3.56157 13.1278 2.97905 11.9459C1.7819 9.51706 0.970594 5.04228 2.71878 2.01903C2.99338 1.54415 3.54628 1.2952 4.1192 1.29296L7.79963 1.27857Z" fill="#F68B1E"/>
<path d="M25.6652 21.252C25.8033 20.2109 24.9331 19.3077 23.8236 19.2528C22.0776 19.1664 20.8434 18.9045 19.3359 18.407C18.5077 18.1337 17.5927 18.4329 16.955 19.0019C16.0956 19.7687 15.0563 20.3108 14.1671 20.7344C12.9347 21.3215 12.6999 23.8004 13.8721 24.4887C16.2813 25.9032 20.8876 27.202 24.2758 25.9265C24.808 25.7262 25.1362 25.2377 25.2074 24.7009L25.6652 21.252Z" fill="#F68B1E"/>
</svg>
