<?xml version="1.0" standalone="no"?>
<!DOCTYPE svg PUBLIC "-//W3C//DTD SVG 20010904//EN"
 "http://www.w3.org/TR/2001/REC-SVG-20010904/DTD/svg10.dtd">
<svg version="1.0" xmlns="http://www.w3.org/2000/svg"
 width="1152.000000pt" height="1152.000000pt" viewBox="0 0 1152.000000 1152.000000"
 preserveAspectRatio="xMidYMid meet">
<metadata>
Created by potrace 1.14, written by Peter Selinger 2001-2017
</metadata>
<g transform="translate(0.000000,1152.000000) scale(0.100000,-0.100000)"
fill="#000000" stroke="none">
<path d="M4622 10365 c-9 -20 -12 -1149 -12 -4596 l0 -4570 35 -15 c45 -18 45
-18 45 11 l0 25 3239 0 3238 0 -1 1743 c-1 1832 0 1803 -44 1826 -9 5 -82 27
-162 50 -80 24 -215 64 -300 91 -85 26 -342 105 -570 175 -228 70 -494 151
-590 181 -182 56 -375 104 -422 104 l-28 0 0 1103 0 1102 -35 46 -34 47 -413
137 c-227 76 -453 153 -503 172 -49 20 -148 52 -220 73 -71 21 -188 61 -258
90 -71 28 -185 66 -255 86 -70 19 -172 52 -227 74 -170 67 -227 70 -288 13
l-30 -28 9 25 c4 14 10 341 11 727 3 677 3 704 -16 740 -35 70 -77 93 -211
117 -52 10 -102 23 -110 31 -20 18 -93 36 -375 90 -167 33 -247 53 -264 66
-33 26 -85 40 -366 99 -132 28 -325 73 -430 101 -183 50 -353 89 -386 89 -9 0
-21 -11 -27 -25z m2208 -5420 l0 -3265 -644 0 -644 0 -6 283 c-10 418 -34
2069 -46 3057 -5 476 -12 1007 -15 1180 -6 340 -1 400 41 482 13 26 82 108
153 183 70 74 179 200 242 280 84 107 120 145 136 145 15 0 23 7 25 23 2 14
11 23 26 25 16 3 22 10 22 28 0 19 5 24 25 24 20 0 25 5 25 26 0 18 18 46 59
89 32 35 136 156 230 269 138 164 177 206 197 206 19 0 24 5 24 25 0 20 5 25
25 25 20 0 25 5 25 25 0 20 5 25 24 25 21 0 26 7 35 50 6 28 11 58 11 65 0 8
7 15 15 15 13 0 15 -369 15 -3265z m2094 143 c6 -106 27 -2580 26 -3111 l0
-297 -622 2 -623 3 -12 85 c-7 50 -16 332 -22 685 -6 330 -17 686 -23 790 -7
105 -12 244 -13 310 0 144 16 195 85 270 25 27 68 77 95 110 28 33 104 118
169 190 66 71 170 193 231 270 61 77 150 181 196 230 47 50 146 167 221 260
145 182 256 305 275 305 7 0 13 -36 17 -102z"/>
<path d="M4173 10293 c-119 -90 -163 -134 -163 -164 0 -25 -4 -29 -28 -29 -20
0 -63 -29 -163 -112 -75 -62 -171 -140 -212 -173 -59 -47 -76 -66 -79 -90 -2
-24 -9 -30 -35 -36 -37 -7 -32 -4 -283 -211 -146 -121 -186 -160 -190 -182 -4
-23 -13 -32 -44 -42 -21 -8 -78 -48 -127 -89 -48 -41 -126 -97 -173 -125 -181
-104 -265 -180 -316 -284 -50 -104 -53 -161 -42 -956 5 -398 6 -745 1 -783
-14 -111 -47 -159 -253 -371 -124 -126 -194 -207 -214 -244 -22 -40 -45 -66
-83 -91 -36 -25 -61 -51 -77 -83 -18 -35 -31 -48 -46 -48 -42 0 -146 -109
-199 -211 -16 -31 -31 -45 -48 -47 -15 -2 -33 -18 -49 -42 -14 -22 -120 -137
-235 -257 -231 -240 -274 -289 -301 -348 -14 -30 -26 -41 -45 -43 -20 -2 -29
-11 -36 -35 -7 -25 -15 -33 -36 -35 -15 -2 -27 -10 -27 -17 0 -8 -82 -101
-182 -208 -129 -136 -190 -209 -207 -245 -19 -40 -30 -52 -47 -52 -19 0 -23
-8 -33 -63 -15 -89 -15 -2452 0 -2529 l11 -55 217 -67 c119 -38 288 -91 376
-118 88 -27 195 -60 238 -74 l78 -24 557 0 c342 0 563 -4 572 -10 10 -6 -59
-10 -205 -11 -121 -1 -588 -4 -1038 -8 -795 -6 -819 -7 -833 -25 -22 -30 -20
-398 2 -417 12 -10 400 -12 2077 -10 1327 2 2066 6 2072 12 15 14 19 345 5
392 l-11 37 -999 0 -1000 0 0 43 c0 23 5 119 10 212 30 532 60 2452 60 3849 0
1033 1 1088 18 1081 21 -10 400 -107 772 -199 151 -38 365 -92 475 -122 247
-66 444 -110 555 -124 l84 -10 23 28 22 27 1 1906 c0 1359 -3 1915 -11 1938
-10 29 -14 31 -59 31 -40 0 -57 -6 -97 -37z"/>
</g>
</svg>
